<svg id="a" xmlns="http://www.w3.org/2000/svg" width="120" height="80" xmlns:xlink="http://www.w3.org/1999/xlink"
     viewBox="0 0 120 80">
    <defs>
        <linearGradient id="b" x1="0" y1="40" x2="120" y2="40" gradientUnits="userSpaceOnUse">
            <stop offset="0" stop-color="#00a1ed"/>
            <stop offset=".124" stop-color="#009aed"/>
            <stop offset=".292" stop-color="#0089ef"/>
            <stop offset=".485" stop-color="#006df2"/>
            <stop offset=".698" stop-color="#0045f7"/>
            <stop offset=".923" stop-color="#0013fc"/>
            <stop offset="1" stop-color="blue"/>
        </linearGradient>
    </defs>
    <path d="m36.314,79.779c-.292-1.504.697-1.986.712-3.318-.697.427-1.447,1.027-2.225.485-1.195-.832,1.07-3.845,1.903-4.545.611-.424,7.896-9.31,9.634-12.32,1.89-3.26,4.753-5.344,6.147-9.389,1.983-5.756-.12-7.01-.185-7.098-.692-.926-8.869-3.937-10.324-5.229-.714-.477-21.992-12.748-23.418-13.735-2.36-1.57-5.67-.815-7.611-3.197-1.928-.587-3.897-.762-5.315-2.393-1.759-1.582-3.047.317-5.53-2.736-1.052-1.464,6.396-.808,7.259-.825,5.948-.115,42.405,6.383,45.484,6.196-1.789-.699-26.316-11.204-27.615-11.695-.529-.2-.624-.533-.62-.99.703-2.15,28.206,3.126,37.201,7.037,2.289.995,4.933,3.603,8.82,1.028.817-.541,1.287-2.866,1.548-3.944.515-.728.967-9.208,8.536-11.797,5.993-2.05,11.779,2.539,17.907,1.397,4.31-.799,8.594-2.013,12.944-2.557,2.734-.342,7.391-.104,8.434.637,0,0-8.093.932-11.66,1.764-11.642,2.13-13.891,3.375-18.523,14.153-.656,2.128-.79,4.508-.254,6.657.327,3.189.137,6.525-.72,9.6-1.923,7.005-6.421,12.83-11.69,18.094-3.736,3.732-10.786,5.888-13.849,6.802-1.013.172-13.29,12.307-15.936,14.87-1.922,1.861-4.954,6.452-5.71,6.455-.762.002-.532-.532-.758-1.123-2.938,1.851-3.851,2.258-4.586,1.717Z"
          fill="url(#b)"/>
</svg>