<svg xmlns="http://www.w3.org/2000/svg" width="400" height="1080" viewBox="0 0 400 1080">
    <polygon
            points="258.019 89.313 256.104 118.062 234.421 99.088 253.394 120.771 224.646 122.687 253.394 124.603 234.421 146.286 256.104 127.312 258.019 156.061 259.935 127.312 281.618 146.286 262.644 124.603 291.393 122.687 262.644 120.771 281.618 99.088 259.935 118.062 258.019 89.313"
            fill="#ffffff"/>
    <polygon
            points="200.275 188.737 202.168 172.776 218.129 170.882 202.168 168.988 200.275 153.027 198.381 168.988 182.42 170.882 198.381 172.776 200.275 188.737"
            fill="#ffffff"/>
    <polygon
            points="151.334 417.561 149.418 446.31 127.735 427.336 146.709 449.019 117.96 450.935 146.709 452.85 127.735 474.534 149.418 455.56 151.334 484.309 153.25 455.56 174.933 474.534 155.959 452.85 184.708 450.935 155.959 449.019 174.933 427.336 153.25 446.31 151.334 417.561"
            fill="#ffffff"/>
    <polygon
            points="227.509 856.081 224.208 905.617 186.847 872.924 219.54 910.286 170.004 913.587 219.54 916.888 186.847 954.249 224.208 921.556 227.509 971.092 230.81 921.556 268.172 954.249 235.479 916.888 285.015 913.587 235.479 910.286 268.172 872.924 230.81 905.617 227.509 856.081"
            fill="#ffffff"/>
    <polygon
            points="80.904 499.431 83.13 480.667 101.893 478.441 83.13 476.215 80.904 457.451 78.677 476.215 59.914 478.441 78.677 480.667 80.904 499.431"
            fill="#ffffff"/>
    <polygon
            points="302.398 720.069 301.103 739.512 286.438 726.68 299.27 741.345 279.827 742.64 299.27 743.936 286.438 758.601 301.103 745.768 302.398 765.212 303.694 745.768 318.359 758.601 305.527 743.936 324.97 742.64 305.527 741.345 318.359 726.68 303.694 739.512 302.398 720.069"
            fill="#ffffff"/>
</svg>